<?xml version="1.0" encoding="utf-8"?>
<!-- Generator: Adobe Illustrator 16.0.0, SVG Export Plug-In . SVG Version: 6.00 Build 0)  -->
<!DOCTYPE svg PUBLIC "-//W3C//DTD SVG 1.1//EN" "http://www.w3.org/Graphics/SVG/1.1/DTD/svg11.dtd">
<svg version="1.1" id="Layer_1" xmlns="http://www.w3.org/2000/svg" xmlns:xlink="http://www.w3.org/1999/xlink" x="0px" y="0px"
	 width="612px" height="792px" viewBox="0 0 612 792" enable-background="new 0 0 612 792" xml:space="preserve">
<path fill="#EEEEEE" d="M76.5,223.875c-10.519,0-19.125,8.606-19.125,19.125v26.417l206.191,169.256
	c24.743,20.32,60.244,20.32,84.986,0l206.072-169.256V243c0-10.519-8.606-19.125-19.125-19.125H76.5z M57.375,343.646V549
	c0,10.519,8.606,19.125,19.125,19.125h459c10.519,0,19.125-8.606,19.125-19.125V343.646L384.891,483.019
	c-45.9,37.652-112.001,37.652-157.781,0L57.375,343.646z M0,243c0-42.194,34.306-76.5,76.5-76.5h459c42.194,0,76.5,34.306,76.5,76.5
	v306c0,42.194-34.306,76.5-76.5,76.5h-459C34.306,625.5,0,591.194,0,549V243z"/>
</svg>
